<svg width="96" height="96" viewBox="0 0 96 96" fill="none" xmlns="http://www.w3.org/2000/svg">
<path fill-rule="evenodd" clip-rule="evenodd" d="M80.2174 21.5H15.7897C11.495 21.5 8 25.0422 8 29.39V65.61C8 69.9615 11.495 73.5 15.7897 73.5H80.2174C84.5085 73.5 88 69.9615 88 65.61V29.39C88 25.0422 84.5085 21.5 80.2174 21.5ZM15.79 69.8695H80.2177C82.5418 69.8695 84.4303 67.9605 84.4303 65.6088V37.707H11.5703V65.6088C11.5703 67.9605 13.4624 69.8695 15.79 69.8695ZM80.2177 25.1289H15.79C13.4624 25.1289 11.5703 27.0415 11.5703 29.3897V30.4494H84.4303V29.3897C84.4303 27.0415 82.5418 25.1289 80.2177 25.1289Z" fill="#006241"/>
<path d="M43.721 51.6214H19.5272C18.5383 51.6214 17.7422 50.8085 17.7422 49.8068C17.7422 48.8051 18.5383 47.9922 19.5272 47.9922H43.721C44.7064 47.9922 45.506 48.8051 45.506 49.8068C45.506 50.8085 44.7064 51.6214 43.721 51.6214Z" fill="#006241"/>
<path d="M75.104 51.6214H70.1131C69.1242 51.6214 68.3281 50.8085 68.3281 49.8068C68.3281 48.8051 69.1242 47.9922 70.1131 47.9922H75.104C76.0893 47.9922 76.889 48.8051 76.889 49.8068C76.889 50.8085 76.0893 51.6214 75.104 51.6214Z" fill="#006241"/>
<path d="M15.79 25.1289H80.2177C82.5418 25.1289 84.4303 27.0415 84.4303 29.3897V30.4494H11.5703V29.3897C11.5703 27.0415 13.4624 25.1289 15.79 25.1289Z" fill="white"/>
<path fill-rule="evenodd" clip-rule="evenodd" d="M80.2177 69.8695H15.79C13.4624 69.8695 11.5703 67.9605 11.5703 65.6088V37.707H84.4303V65.6088C84.4303 67.9605 82.5418 69.8695 80.2177 69.8695ZM70.1131 51.6214H75.104C76.0893 51.6214 76.889 50.8085 76.889 49.8068C76.889 48.8051 76.0893 47.9922 75.104 47.9922H70.1131C69.1242 47.9922 68.3281 48.8051 68.3281 49.8068C68.3281 50.8085 69.1242 51.6214 70.1131 51.6214ZM19.5272 51.6214H43.721C44.7064 51.6214 45.506 50.8085 45.506 49.8068C45.506 48.8051 44.7064 47.9922 43.721 47.9922H19.5272C18.5383 47.9922 17.7422 48.8051 17.7422 49.8068C17.7422 50.8085 18.5383 51.6214 19.5272 51.6214Z" fill="white"/>
</svg>
