<svg width="96" height="97" viewBox="0 0 96 97" fill="none" xmlns="http://www.w3.org/2000/svg">
<path fill-rule="evenodd" clip-rule="evenodd" d="M83 18.5H62H13C9.13401 18.5 6 21.5996 6 25.4231V71.5769C6 75.4004 9.13401 78.5 13 78.5H62H83C86.866 78.5 90 75.4004 90 71.5769V25.4231C90 21.5996 86.866 18.5 83 18.5ZM62 76.1923V20.8077H83C85.3333 20.8077 87.6667 23.1154 87.6667 25.4231V71.5769C87.6667 73.8846 85.3333 76.1923 83 76.1923H62ZM76 39.2692C79.866 39.2692 83 36.1697 83 32.3462C83 28.5226 79.866 25.4231 76 25.4231C72.134 25.4231 69 28.5226 69 32.3462C69 36.1697 72.134 39.2692 76 39.2692Z" fill="#006241"/>
<path fill-rule="evenodd" clip-rule="evenodd" d="M62 20.8077V76.1923H83C85.3333 76.1923 87.6667 73.8846 87.6667 71.5769V25.4231C87.6667 23.1154 85.3333 20.8077 83 20.8077H62ZM83 32.3462C83 36.1697 79.866 39.2692 76 39.2692C72.134 39.2692 69 36.1697 69 32.3462C69 28.5226 72.134 25.4231 76 25.4231C79.866 25.4231 83 28.5226 83 32.3462Z" fill="white"/>
</svg>
