<svg width="96" height="97" viewBox="0 0 96 97" fill="none" xmlns="http://www.w3.org/2000/svg">
<path d="M12.3913 15.5C8.89443 15.5 6 18.4059 6 21.9167V53.0833C6 56.5941 8.89443 59.5 12.3913 59.5H51.2242C50.3335 61.4611 49.8261 63.6296 49.8261 65.9167C49.8261 74.4905 56.8078 81.5 65.3478 81.5C73.1176 81.5 79.5784 75.6904 80.6841 68.1868C86.053 66.6624 90 61.6863 90 55.8333C90 52.3609 88.6015 49.2021 86.3478 46.8851V21.9167C86.3478 18.4059 83.4534 15.5 79.9565 15.5H12.3913ZM20.3697 21H71.9781C71.6995 22.0831 71.6715 23.2158 71.8961 24.3114C72.1206 25.4071 72.5919 26.4366 73.2738 27.3213C73.9556 28.2059 74.83 28.9223 75.8301 29.4155C76.8301 29.9086 77.9293 30.1656 79.0435 30.1667C79.66 30.1632 80.2735 30.0814 80.8696 29.9232V43.5443C79.7101 43.1941 78.4862 43 77.2174 43C72.137 43 67.7313 46.0061 65.676 50.3512C65.5656 50.3489 65.4587 50.3333 65.3478 50.3333C61.5601 50.3333 58.0843 51.7173 55.3828 54H20.3697C20.6483 52.9169 20.6763 51.7842 20.4518 50.6886C20.2272 49.5929 19.7559 48.5634 19.0741 47.6787C18.3922 46.7941 17.5178 46.0777 16.5177 45.5845C15.5177 45.0914 14.4185 44.8344 13.3043 44.8333C12.6879 44.8368 12.0743 44.9186 11.4783 45.0768V29.9303C12.0746 30.0861 12.6882 30.1655 13.3043 30.1667C14.4185 30.1656 15.5177 29.9086 16.5177 29.4155C17.5178 28.9223 18.3922 28.2059 19.0741 27.3213C19.7559 26.4366 20.2272 25.4071 20.4518 24.3114C20.6763 23.2158 20.6483 22.0831 20.3697 21ZM26.087 33.8333C25.1183 33.8333 24.1894 34.2196 23.5045 34.9073C22.8196 35.5949 22.4348 36.5275 22.4348 37.5C22.4348 38.4725 22.8196 39.4051 23.5045 40.0927C24.1894 40.7804 25.1183 41.1667 26.087 41.1667C27.0556 41.1667 27.9845 40.7804 28.6694 40.0927C29.3543 39.4051 29.7391 38.4725 29.7391 37.5C29.7391 36.5275 29.3543 35.5949 28.6694 34.9073C27.9845 34.2196 27.0556 33.8333 26.087 33.8333ZM66.2609 33.8333C65.2923 33.8333 64.3633 34.2196 63.6784 34.9073C62.9935 35.5949 62.6087 36.5275 62.6087 37.5C62.6087 38.4725 62.9935 39.4051 63.6784 40.0927C64.3633 40.7804 65.2923 41.1667 66.2609 41.1667C67.2295 41.1667 68.1584 40.7804 68.8433 40.0927C69.5283 39.4051 69.913 38.4725 69.913 37.5C69.913 36.5275 69.5283 35.5949 68.8433 34.9073C68.1584 34.2196 67.2295 33.8333 66.2609 33.8333ZM77.2174 48.5C81.2852 48.5 84.5217 51.7494 84.5217 55.8333C84.5217 58.7403 82.8669 61.22 80.4558 62.4111C79.319 57.5001 75.8657 53.458 71.3147 51.54C72.6358 49.7075 74.7666 48.5 77.2174 48.5ZM65.3478 55.8333C70.9271 55.8333 75.3913 60.3152 75.3913 65.9167C75.3913 71.5181 70.9271 76 65.3478 76C59.7685 76 55.3043 71.5181 55.3043 65.9167C55.3043 60.3152 59.7685 55.8333 65.3478 55.8333Z" fill="#006241"/>
<path d="M42.7865 47.6775C46.7308 47.6775 49.6889 45.4631 49.6889 41.6382C49.6889 38.0952 46.9773 36.9277 43.6493 35.8003C40.9377 34.9146 38.6369 34.0288 38.6369 31.6937C38.6369 29.8014 40.2803 28.5533 42.7454 28.5533C45.0051 28.5533 46.5253 29.8014 47.6346 31.0898L49.1548 29.5196C48.0044 27.9091 46.1145 26.5 42.5811 26.5C39.0888 26.5 36.0895 28.4728 36.0895 31.9352C36.0895 35.6393 39.0477 36.8874 42.0881 37.8939C45.3338 38.9407 47.1005 39.7057 47.1005 42.0006C47.1005 44.2552 45.2928 45.5436 42.7043 45.5436C39.8283 45.5436 37.774 44.0942 36.5415 42.2824L34.9391 44.0539C36.295 45.6644 38.3493 47.6775 42.7865 47.6775Z" fill="#006241"/>
<path fill-rule="evenodd" clip-rule="evenodd" d="M58.3512 26.4999C58.8277 26.6393 59.0987 27.1308 58.9565 27.5978L53.581 47.0106C53.4387 47.4775 52.9371 47.7431 52.4606 47.6037C51.984 47.4643 51.713 46.9728 51.8553 46.5058L57.2308 27.093C57.373 26.6261 57.8746 26.3605 58.3512 26.4999Z" fill="#006241"/>
<path fill-rule="evenodd" clip-rule="evenodd" d="M20.3697 21H71.9781C71.6995 22.0831 71.6715 23.2158 71.8961 24.3114C72.1206 25.4071 72.5919 26.4366 73.2738 27.3213C73.9556 28.2059 74.83 28.9223 75.8301 29.4155C76.8301 29.9086 77.9293 30.1656 79.0435 30.1667C79.66 30.1632 80.2735 30.0814 80.8696 29.9232V43.5443C79.7101 43.1941 78.4862 43 77.2174 43C72.137 43 67.7313 46.0061 65.676 50.3512C65.5656 50.3489 65.4587 50.3333 65.3478 50.3333C61.5601 50.3333 58.0843 51.7173 55.3828 54H20.3697C20.6483 52.9169 20.6763 51.7842 20.4518 50.6886C20.2272 49.5929 19.7559 48.5634 19.0741 47.6787C18.3922 46.7941 17.5178 46.0777 16.5177 45.5845C15.5177 45.0914 14.4185 44.8344 13.3043 44.8333C12.6879 44.8368 12.0743 44.9186 11.4783 45.0768V29.9303C12.0746 30.0861 12.6882 30.1655 13.3043 30.1667C14.4185 30.1656 15.5177 29.9086 16.5177 29.4155C17.5178 28.9223 18.3922 28.2059 19.0741 27.3213C19.7559 26.4366 20.2272 25.4071 20.4518 24.3114C20.6763 23.2158 20.6483 22.0831 20.3697 21ZM23.5045 34.9073C24.1894 34.2196 25.1183 33.8333 26.087 33.8333C27.0556 33.8333 27.9845 34.2196 28.6694 34.9073C29.3543 35.5949 29.7391 36.5275 29.7391 37.5C29.7391 38.4725 29.3543 39.4051 28.6694 40.0927C27.9845 40.7804 27.0556 41.1667 26.087 41.1667C25.1183 41.1667 24.1894 40.7804 23.5045 40.0927C22.8196 39.4051 22.4348 38.4725 22.4348 37.5C22.4348 36.5275 22.8196 35.5949 23.5045 34.9073ZM63.6784 34.9073C64.3633 34.2196 65.2923 33.8333 66.2609 33.8333C67.2295 33.8333 68.1584 34.2196 68.8433 34.9073C69.5283 35.5949 69.913 36.5275 69.913 37.5C69.913 38.4725 69.5283 39.4051 68.8433 40.0927C68.1584 40.7804 67.2295 41.1667 66.2609 41.1667C65.2923 41.1667 64.3633 40.7804 63.6784 40.0927C62.9935 39.4051 62.6087 38.4725 62.6087 37.5C62.6087 36.5275 62.9935 35.5949 63.6784 34.9073ZM49.6889 41.6382C49.6889 45.4631 46.7308 47.6775 42.7865 47.6775C38.3493 47.6775 36.295 45.6644 34.9391 44.0539L36.5415 42.2824C37.774 44.0942 39.8283 45.5436 42.7043 45.5436C45.2928 45.5436 47.1005 44.2552 47.1005 42.0006C47.1005 39.7057 45.3338 38.9407 42.0881 37.8939C39.0477 36.8874 36.0895 35.6393 36.0895 31.9352C36.0895 28.4728 39.0888 26.5 42.5811 26.5C46.1145 26.5 48.0044 27.9091 49.1548 29.5196L47.6346 31.0898C46.5253 29.8014 45.0051 28.5533 42.7454 28.5533C40.2803 28.5533 38.6369 29.8014 38.6369 31.6937C38.6369 34.0288 40.9377 34.9146 43.6493 35.8003C46.9773 36.9277 49.6889 38.0952 49.6889 41.6382ZM58.3512 26.4999C58.8277 26.6393 59.0987 27.1308 58.9565 27.5978L53.581 47.0106C53.4387 47.4775 52.9371 47.7431 52.4606 47.6037C51.984 47.4643 51.713 46.9728 51.8553 46.5058L57.2308 27.093C57.373 26.6261 57.8746 26.3605 58.3512 26.4999Z" fill="white"/>
<path d="M65.3478 55.8333C70.9271 55.8333 75.3913 60.3152 75.3913 65.9167C75.3913 71.5181 70.9271 76 65.3478 76C59.7685 76 55.3043 71.5181 55.3043 65.9167C55.3043 60.3152 59.7685 55.8333 65.3478 55.8333Z" fill="white"/>
<path d="M77.2174 48.5C81.2852 48.5 84.5217 51.7494 84.5217 55.8333C84.5217 58.7403 82.8669 61.22 80.4558 62.4111C79.319 57.5001 75.8657 53.458 71.3147 51.54C72.6358 49.7075 74.7666 48.5 77.2174 48.5Z" fill="white"/>
</svg>
