<svg width="96" height="97" viewBox="0 0 96 97" fill="none" xmlns="http://www.w3.org/2000/svg">
<path d="M6 24.7727C6 21.8607 8.35051 19.5 11.25 19.5H84.75C87.6495 19.5 90 21.8607 90 24.7727V72.2273C90 75.1393 87.6495 77.5 84.75 77.5H11.25C8.35051 77.5 6 75.1393 6 72.2273V24.7727Z" fill="#006241"/>
<path d="M69 48.5C69 60.1482 59.598 69.5909 48 69.5909C36.402 69.5909 27 60.1482 27 48.5C27 36.8518 36.402 27.4091 48 27.4091C59.598 27.4091 69 36.8518 69 48.5Z" fill="white"/>
<path d="M49.2847 55.75C51.9795 55.75 54.0007 54.2365 54.0007 51.6223C54.0007 49.2007 52.148 48.4026 49.8742 47.6321C48.0214 47.0267 46.4494 46.4213 46.4494 44.8253C46.4494 43.5319 47.5723 42.6788 49.2566 42.6788C50.8005 42.6788 51.8392 43.5319 52.5971 44.4125L53.6358 43.3393C52.8498 42.2385 51.5585 41.2754 49.1443 41.2754C46.7582 41.2754 44.709 42.6238 44.709 44.9904C44.709 47.522 46.7301 48.3751 48.8074 49.0631C51.0251 49.7785 52.2322 50.3014 52.2322 51.8699C52.2322 53.411 50.997 54.2915 49.2285 54.2915C47.2635 54.2915 45.8599 53.3009 45.0178 52.0626L43.923 53.2734C44.8493 54.3741 46.2529 55.75 49.2847 55.75Z" fill="#006241"/>
<path d="M61.125 54.8397C61.125 55.3146 60.7323 55.6996 60.2478 55.6996C59.7633 55.6996 59.3705 55.3146 59.3705 54.8397C59.3705 54.3647 59.7633 53.9797 60.2478 53.9797C60.7323 53.9797 61.125 54.3647 61.125 54.8397Z" fill="#006241"/>
<path fill-rule="evenodd" clip-rule="evenodd" d="M59.9191 41.2754C60.2447 41.3706 60.4299 41.7066 60.3327 42.0258L56.6599 55.2942C56.5627 55.6134 56.22 55.7949 55.8944 55.6996C55.5688 55.6043 55.3836 55.2684 55.4808 54.9492L59.1536 41.6808C59.2508 41.3616 59.5935 41.1801 59.9191 41.2754Z" fill="#006241"/>
<path d="M40.4066 44.2109C40.4066 43.8772 40.1314 43.6067 39.792 43.6067C39.4525 43.6067 39.1773 43.8772 39.1773 44.2109V47.8359H35.4896C35.1502 47.8359 34.875 48.1064 34.875 48.44C34.875 48.7737 35.1502 49.0442 35.4896 49.0442H39.1773V52.6692C39.1773 53.0029 39.4525 53.2734 39.792 53.2734C40.1314 53.2734 40.4066 53.0029 40.4066 52.6692V49.0442H44.0943C44.4338 49.0442 44.7089 48.7737 44.7089 48.44C44.7089 48.1064 44.4338 47.8359 44.0943 47.8359H40.4066V44.2109Z" fill="#006241"/>
</svg>
